<svg width="24" height="24" viewBox="0 0 24 24" fill="none" xmlns="http://www.w3.org/2000/svg">
<path d="M5.96709 6.625L5.30009 3.625H3.37109" stroke="#FAEAFB" stroke-width="1.5" stroke-linecap="round" stroke-linejoin="round"/>
<path fill-rule="evenodd" clip-rule="evenodd" d="M7.73075 14.835L5.96875 6.625H18.6267C19.2638 6.625 19.7377 7.212 19.6047 7.835L18.1027 14.835C18.0037 15.296 17.5968 15.625 17.1248 15.625H8.70775C8.23675 15.625 7.82975 15.296 7.73075 14.835Z" stroke="#FAEAFB" stroke-width="1.5" stroke-linecap="round" stroke-linejoin="round"/>
<path d="M17.4668 19.25C17.2598 19.25 17.0918 19.418 17.0938 19.625C17.0938 19.832 17.2618 20 17.4688 20C17.6758 20 17.8438 19.832 17.8438 19.625C17.8428 19.418 17.6748 19.25 17.4668 19.25" stroke="#FAEAFB" stroke-width="1.5" stroke-linecap="round" stroke-linejoin="round"/>
<path d="M8.85788 19.25C8.65088 19.25 8.48288 19.418 8.48488 19.625C8.48388 19.832 8.65188 20 8.85888 20C9.06588 20 9.23388 19.832 9.23388 19.625C9.23388 19.418 9.06588 19.25 8.85788 19.25" stroke="#FAEAFB" stroke-width="1.5" stroke-linecap="round" stroke-linejoin="round"/>
</svg>
