<svg width="48" height="48" viewBox="0 0 48 48" fill="none" xmlns="http://www.w3.org/2000/svg">
<path fill-rule="evenodd" clip-rule="evenodd" d="M20.9095 25.735C23.6533 25.735 25.8775 23.5107 25.8775 20.7669C25.8775 18.0231 23.6533 15.7988 20.9095 15.7988C18.1657 15.7988 15.9414 18.0231 15.9414 20.7669C15.9414 23.5107 18.1657 25.735 20.9095 25.735Z" stroke="#580063" stroke-width="1.5" stroke-linecap="round" stroke-linejoin="round"/>
<path d="M35.7825 21.8475C36.2209 14.9927 31.9195 8.72542 25.3656 6.66945C18.8117 4.61349 11.7013 7.30089 8.14567 13.1778C4.59002 19.0547 5.5093 26.6002 10.372 31.4515L20.9104 42.0079" stroke="#580063" stroke-width="1.5" stroke-linecap="round" stroke-linejoin="round"/>
<path d="M35.0043 28.002V34.0045" stroke="#580063" stroke-width="1.5" stroke-linecap="round" stroke-linejoin="round"/>
<path d="M42.0058 35.5619C42.0058 34.7022 41.3089 34.0053 40.4492 34.0053H29.5566C28.6969 34.0053 28 34.7022 28 35.5619" stroke="#580063" stroke-width="1.5" stroke-linecap="round" stroke-linejoin="round"/>
<path fill-rule="evenodd" clip-rule="evenodd" d="M30.0008 42.0078H40.005C41.11 42.0078 42.0058 41.112 42.0058 40.007V32.874C42.0057 32.0632 41.8417 31.2608 41.5236 30.515L40.9674 29.2165C40.6527 28.4802 39.9294 28.0024 39.1286 28.002H30.8772C30.0757 28.0016 29.3514 28.4795 29.0364 29.2165L28.4822 30.513C28.1642 31.2588 28.0001 32.0612 28 32.872V40.007C28 41.112 28.8958 42.0078 30.0008 42.0078Z" stroke="#580063" stroke-width="1.5" stroke-linecap="round" stroke-linejoin="round"/>
</svg>
