<svg width="48" height="48" viewBox="0 0 48 48" fill="none" xmlns="http://www.w3.org/2000/svg">
<path d="M34 42C28.478 42 24 37.524 24 32.002C24 26.592 28.6 21.996 34.01 22C39.528 22.004 44 26.48 44 32C44 37.522 39.524 42 34 42" stroke="#580063" stroke-width="1.5" stroke-linecap="round" stroke-linejoin="round"/>
<path d="M4 13.6992H42" stroke="#580063" stroke-width="1.5" stroke-linecap="round" stroke-linejoin="round"/>
<path d="M42 26V10C42 7.79 40.21 6 38 6H8C5.79 6 4 7.79 4 10V28C4 30.21 5.79 32 8 32H24" stroke="#580063" stroke-width="1.5" stroke-linecap="round" stroke-linejoin="round"/>
<path d="M38.4427 29.7773L32.8867 35.3333L29.5547 31.9993" stroke="#580063" stroke-width="1.5" stroke-linecap="round" stroke-linejoin="round"/>
</svg>
