<svg width="48" height="48" viewBox="0 0 48 48" fill="none" xmlns="http://www.w3.org/2000/svg">
<path d="M28 40H10.25C7.902 40 6 38.098 6 35.75V15.71C6 15.136 6.116 14.566 6.342 14.04L8.676 8.58C9.344 7.016 10.882 6 12.584 6H33.418C35.12 6 36.656 7.016 37.326 8.58L39.66 14.04C39.884 14.568 40 15.136 40 15.71V24" stroke="#580063" stroke-width="1.5" stroke-linecap="round" stroke-linejoin="round"/>
<path d="M23 6V14.88" stroke="#580063" stroke-width="1.5" stroke-linecap="round" stroke-linejoin="round"/>
<path d="M39.9139 14.8809H6.08594" stroke="#580063" stroke-width="1.5" stroke-linecap="round" stroke-linejoin="round"/>
<path d="M12 32H16" stroke="#580063" stroke-width="1.5" stroke-linecap="round" stroke-linejoin="round"/>
<path d="M34 42C28.478 42 24 37.522 24 32C24 26.478 28.478 22 34 22C39.524 22 44 26.478 44 32C44 37.522 39.524 42 34 42" stroke="#580063" stroke-width="1.5" stroke-linecap="round" stroke-linejoin="round"/>
<path d="M37.8894 30.0566L33.0274 34.9186L30.1094 32.0006" stroke="#580063" stroke-width="1.5" stroke-linecap="round" stroke-linejoin="round"/>
</svg>
