<svg width="48" height="48" viewBox="0 0 48 48" fill="none" xmlns="http://www.w3.org/2000/svg">
<path d="M37.4085 36.5926C38.6465 37.8306 38.6465 39.8366 37.4085 41.0726C36.1705 42.3106 34.1645 42.3106 32.9285 41.0726C31.6905 39.8346 31.6905 37.8286 32.9285 36.5926C34.1665 35.3546 36.1725 35.3546 37.4085 36.5926" stroke="#580063" stroke-width="1.5" stroke-linecap="round" stroke-linejoin="round"/>
<path d="M15.4078 36.5918C16.6458 37.8298 16.6458 39.8358 15.4078 41.0718C14.1698 42.3098 12.1638 42.3098 10.9278 41.0718C9.69175 39.8338 9.68975 37.8278 10.9278 36.5918C12.1658 35.3558 14.1698 35.3538 15.4078 36.5918" stroke="#580063" stroke-width="1.5" stroke-linecap="round" stroke-linejoin="round"/>
<path d="M20 8H28C29.104 8 30 8.896 30 10V30H4" stroke="#580063" stroke-width="1.5" stroke-linecap="round" stroke-linejoin="round"/>
<path d="M10 38.832H6C4.896 38.832 4 37.936 4 36.832V26" stroke="#580063" stroke-width="1.5" stroke-linecap="round" stroke-linejoin="round"/>
<path d="M30 14H38.646C39.464 14 40.2 14.498 40.502 15.258L43.714 23.286C43.902 23.758 44 24.262 44 24.77V36.666C44 37.77 43.104 38.666 42 38.666H38.338" stroke="#580063" stroke-width="1.5" stroke-linecap="round" stroke-linejoin="round"/>
<path d="M31.9998 38.8398H16.3398" stroke="#580063" stroke-width="1.5" stroke-linecap="round" stroke-linejoin="round"/>
<path d="M44 28H36V20H42.4" stroke="#580063" stroke-width="1.5" stroke-linecap="round" stroke-linejoin="round"/>
<path d="M4 8H14" stroke="#580063" stroke-width="1.5" stroke-linecap="round" stroke-linejoin="round"/>
<path d="M4 14H10" stroke="#580063" stroke-width="1.5" stroke-linecap="round" stroke-linejoin="round"/>
<path d="M6 20H4" stroke="#580063" stroke-width="1.5" stroke-linecap="round" stroke-linejoin="round"/>
</svg>
