<svg width="24" height="24" viewBox="0 0 24 24" fill="none" xmlns="http://www.w3.org/2000/svg">
<g id="Group">
<path id="Path" fill-rule="evenodd" clip-rule="evenodd" d="M7.496 3H16.505C18.987 3 21 5.012 21 7.496V16.505C21 18.987 18.988 21 16.504 21H7.496C5.013 21 3 18.988 3 16.504V7.496C3 5.013 5.012 3 7.496 3V3Z" stroke="#580063" stroke-width="1.5" stroke-linecap="round" stroke-linejoin="round"/>
<path id="Path_2" d="M16.9487 6.71328C16.7627 6.71428 16.6117 6.86528 16.6117 7.05128C16.6117 7.23728 16.7637 7.38828 16.9497 7.38828C17.1357 7.38828 17.2867 7.23728 17.2867 7.05128C17.2877 6.86428 17.1357 6.71328 16.9487 6.71328" stroke="#580063" stroke-width="1.5" stroke-linecap="round" stroke-linejoin="round"/>
<path id="Path_3" d="M14.544 9.45481C15.9499 10.8607 15.9499 13.1401 14.544 14.546C13.1381 15.9519 10.8587 15.9519 9.45285 14.546C8.04697 13.1401 8.04697 10.8607 9.45285 9.45481C10.8587 8.04892 13.1381 8.04892 14.544 9.45481" stroke="#580063" stroke-width="1.5" stroke-linecap="round" stroke-linejoin="round"/>
</g>
</svg>
